<svg xmlns="http://www.w3.org/2000/svg" width="26" height="26" fill="none"><path fill="url(#a)" fill-rule="evenodd" stroke="#152B35" stroke-width=".5" d="M22.86 10.86h-7.29a.43.43 0 0 1-.43-.43V3.14a2.14 2.14 0 0 0-4.28 0v7.29c0 .23-.2.43-.43.43H3.14a2.14 2.14 0 0 0 0 4.28h7.29c.23 0 .43.2.43.43v7.29a2.14 2.14 0 0 0 4.28 0v-7.29c0-.23.2-.43.43-.43h7.29a2.14 2.14 0 0 0 0-4.28Z" clip-rule="evenodd"/><defs><linearGradient id="a" x1="-3.31" x2="14.81" y1="14.44" y2="32.04" gradientUnits="userSpaceOnUse"><stop stop-color="#E5A87F"/><stop offset=".18" stop-color="#ECBF98"/><stop offset=".51" stop-color="#F7E6C4"/><stop offset="1" stop-color="#E5A87F"/></linearGradient></defs></svg>